<svg xmlns="http://www.w3.org/2000/svg" width="512" height="512" style="shape-rendering:geometricPrecision;text-rendering:geometricPrecision;image-rendering:optimizeQuality;fill-rule:evenodd;clip-rule:evenodd"><path style="opacity:.987" d="M237.5 41.5c2.82-.252 5.486.248 8 1.5a2163.353 2163.353 0 0 1 46.5 63.5c1.483 3.202 1.817 6.536 1 10a2136.71 2136.71 0 0 1-54.5 55.5c-3 .667-6 .667-9 0a989.584 989.584 0 0 0-23.5-18.5l-9 3a3362.569 3362.569 0 0 0 0 116c16.302-13.992 35.302-20.658 57-20 21.401-.421 40.734 5.579 58 18 13.354-13.599 28.854-24.099 46.5-31.5 32.138-10.81 61.804-6.143 89 14l9.5 7.5 1 4c.4 52.668.9 105.334 1.5 158l-1 41c-17.956 5.85-36.289 7.35-55 4.5-23.265-2.867-45.432-9.367-66.5-19.5-30.576 12.654-62.409 17.488-95.5 14.5-32.972-3.486-63.638-13.819-92-31a6355.232 6355.232 0 0 0-89-60c-7.8-6.4-10.634-14.567-8.5-24.5l57-220c2.763-14.035 9.93-25.201 21.5-33.5 35.758-17.547 71.425-35.047 107-52.5zm-98 308c2.357-.163 4.69.003 7 .5 24.866 38.357 60.366 57.524 106.5 57.5a2379.028 2379.028 0 0 1 34.5-2.5c4.361 2.226 5.861 5.726 4.5 10.5-.833 2.167-2.333 3.667-4.5 4.5-42.137 8.7-81.137 1.366-117-22-13.965-10.295-25.465-22.795-34.5-37.5-1.338-4.54-.171-8.207 3.5-11zm232 63a241.694 241.694 0 0 0 35.5 5 122.75 122.75 0 0 0 19-2c4.822.822 7.656 3.656 8.5 8.5-1.58 4.918-4.914 7.585-10 8-18.113 3.011-35.779 1.345-53-5-5.268-4.829-5.268-9.663 0-14.5z"/></svg>