<svg xmlns="http://www.w3.org/2000/svg" viewBox="0 0 500 500">
  <path d="M193.181 42.467c-3 1-9.7 4.1-14.8 7-9.1 5.1-38.2 19.7-67.1 33.5-12.2 5.9-15.5 8-20.6 13-9.1 9.1-13.3 18.5-19.4 43.1-2.7 11-7.4 29.2-10.5 40.5-37.7 137.2-41.9 153.4-41.9 161.5-.1 9.5 2.4 15.5 8.8 22 4 3.9 82.4 54.9 98.1 63.7 16.6 9.4 32.6 15.1 60.8 21.8 15.9 3.7 19.6 3.8 22.6.6 2.4-2.5 4.2-12.6 3.5-19.1-.2-1.7-1.1-10-1.9-18.5-.9-8.5-2.2-16.9-3-18.5-.7-1.7-2.3-8.4-3.5-15-4.7-26.4-16-64.4-26.3-88.6-6.3-14.7-9.7-20.1-13.5-21.9l-3.2-1.5v-111.6l2.6-2.5c4.1-4.2 7.6-2.5 22.5 11.4l5.9 5.4 4.7-3.8c6.6-5.3 28.4-24.7 30.8-27.4 1.1-1.3 6.3-6 11.6-10.6 11.7-10 12.9-12.4 9.8-18.5-2.3-4.5-21.5-33.6-28-42.5-2.1-2.9-4.1-6.3-4.4-7.6-.8-3.3-8.8-13.7-12.2-15.9-3.4-2.3-4.3-2.3-11.4 0Zm182 133.3c-1.1 1.3-3.5 4.5-5.2 7.3-3 4.6-4.2 5.5-17.2 12-17.7 8.8-37.1 21.3-35.5 22.9.6.6 6.1 1.4 12.3 1.7 10.9.5 11.5.7 20.4 5.2 5.2 2.6 10 5.8 10.9 7.2 1.5 2.4 1.5 5.2 0 41.3-.9 21.3-2.1 45.9-2.7 54.7-1.6 25.4-1.4 30.5 1.7 42.4 1.9 7.1 2.5 11.6 2 13.6-.7 3.2-12.2 14.8-31.2 31.7-10.1 8.9-17.8 17.6-22.4 25.2l-2.3 3.9 3.9-.8c5.8-1.1 16.8-2.4 17.2-2 .2.1-3.9 2.9-9 6-11.3 7-14.3 9.5-12.6 10.7 2 1.3 25.8-.2 31.3-1.9 11.3-3.5 67.6-35.7 71-40.6 1-1.4 1.3-3.3.9-5.9-.7-4.4 0-4.6 6.4-2.4l4.1 1.5 1.5-4.6 1.5-4.5-2.7.7c-2.3.5-1.8-.1 3-4.4 3.1-2.8 7.9-6.9 10.7-9.1l5-4 1.4 2.5 1.3 2.6 4.4-3.2c6.3-4.4 10.7-8.7 14.1-13.6l2.9-4.2-4.4-.3-4.4-.3 6.8-10.4c5.6-8.5 7.2-11.7 8.6-18 .9-4.2 1.9-7 2.1-6.4.9 2.6 7.5.9 8.7-2.2.6-1.7-1.6-6.9-3.4-8-.5-.3-1.6.9-2.4 2.7l-1.5 3.3.6-3c.9-4.5 1.9-5.2 5.3-3.2 3.6 2.2 3.6 2.8 1-13.1-2.3-13.8-3.2-16.1-8.7-21.4-5.6-5.4-21.2-11.8-29-11.8h-2.2l1.9-4.3c1.2-2.6 2-6.4 2-10v-5.8l2.9 2 2.9 2.1 1.1-3.2c1.3-3.8 1.4-10.2.2-14.6-.9-2.9-.8-3.2 1.3-3.2 1.2 0 3.3-1.2 4.7-2.6 2.1-2.2 2.4-3.5 2.4-9.7 0-4.5-.7-8.9-1.8-11.7-2.1-5.6-9.3-12.9-16.7-16.9-3-1.7-5-3.1-4.5-3.1 4.9-.3-18.6-5.8-31.5-7.5-6.6-.9-11.9-3.6-14.5-7.6-2.3-3.3-3.5-3.7-3.6-1.2 0 1.4-.2 1.5-.6.3-1.9-5.2-7-6.5-10.4-2.8Zm43.4 50.8c3.2 3.7 4.2 8.2 2.6 11.2-1.8 3.3-21.3 29-23.2 30.7-1.5 1.2-1.9.9-3.2-2.2-.8-2-1.5-4.4-1.5-5.4 0-4.1 4.4-24.1 6-27.3 4.8-9.5 14.4-12.9 19.3-7Zm21 39c-.3 1.1-.7 2-.9 2-.2 0-.8-.9-1.4-2-.9-1.7-.8-2 .9-2 1.4 0 1.8.5 1.4 2Zm-4.1 48c3.4 2.6 4 6.6 1.8 11.1-1.6 3.1-42.3 47.9-43.5 47.9-.9 0-2.5-8-3-15.5-1-14.6 2-40.5 4.8-41.6.4-.2 32.3-3.6 34.8-3.8 1.5 0 3.8.8 5.1 1.9Zm-67.8 44.1c.3 1.7.6 4.4.6 5.9s1.1 4.4 2.5 6.4l2.5 3.7-4 4.2-3.9 4.2-.1-13.8c0-13 1-17.5 2.4-10.6Z"/>
  <path d="M248.481 210.167c-1.2.8-3.3 3.7-4.7 6.4-2.9 5.7-5.2 7.5-16.7 12.8-9.6 4.4-23.7 13.5-33.8 21.8-7.7 6.2-18.2 16.9-15.9 16.1.9-.3 5.6-1.5 10.5-2.7 10.2-2.5 13.9-1.9 15 2.5.6 2.3 1 2.5 4.3 1.9 2-.3 8.3-2.1 14.1-4 5.7-1.8 10.6-3.1 10.9-2.8.8.8.6 19.3-.2 30.9-.5 6-1.2 18.4-1.6 27.5-.6 15.7-.8 16.8-3.8 23.2l-3.1 6.6 3.4.7 3.4.6-5 7.4c-2.8 4.1-6.4 9.1-8.1 11l-3.1 3.5h2.5c1.3 0 4.4-.7 6.7-1.5s4.4-1.5 4.5-1.5c.2 0 .6 2.1.9 4.7.4 2.7 1.1 7.7 1.6 11.3.5 3.6 1.4 10.5 2 15.5 1.3 10.2 2.9 16.7 4.1 15.9.5-.2.8-6.4.7-13.8 0-7.3.3-14.3.8-15.7.7-2.2.8-2.1 1.5 1.6.4 2.2.8 5.8.8 8.1.1 2.8 1 5.4 2.8 8 1.8 2.6 2.8 5.7 3.1 9.3l.5 5.5-15.8 15.3-15.8 15.2 2.8 1.1c3.4 1.3 10.3 2.7 13 2.7 1.1 0 5.8.8 10.4 1.8 15 3.1 33 .5 38.4-5.5 2.9-3.2 2.9-4 1.1-10.4-.5-1.6-.2-1.7 3.5-1.1 2.6.4 4.1.3 4.1-.3 0-1.8 5-7.1 14.1-14.8l8.9-7.6.6 3.1.6 3 3.2-1.6c5.1-2.7 11.4-8.2 14.6-13.1 3.2-4.9 2.8-6.2-1.7-6.2-1.3 0-2.3-.2-2.3-.4 0-.3 2.6-3.1 5.8-6.3 7.4-7.5 9.7-12.1 9.7-19.8 0-4.6.5-6.7 2.1-8.7 1.2-1.5 2.7-4.8 3.3-7.4 1.2-4.6 1.2-4.6 3.3-2.8 2 1.9 2 1.9 1.4-1.6-1.6-7.8-5.9-21.6-8.1-25.9-4.3-8.4-13.6-15-25.1-17.7-6.6-1.6-7.2-1.9-6-3.3 2.1-2.4 4.3-7.2 5.1-11.1.4-1.9 1.6-4.1 2.5-4.7 1-.7 2.5-3.4 3.4-6 1.4-4.2 1.4-4.8.1-6.3-1.3-1.4-1.5-4.2-1.3-15.1l.3-13.5-4.2-6.4c-5.2-8-14.6-17.4-19.3-19.4-2-.8-8.3-2-14-2.6-12.7-1.5-20-4-23.5-8.2-2.1-2.5-2.8-2.9-3.6-1.7-.5.8-.9.9-.9.3 0-1.5-3.8-5.4-5.3-5.4-.7 0-2.3.7-3.5 1.6Zm42.3 52.7c1.7 1.4 2.8 3.6 3.1 6.2 1.1 8.3-12.5 29.7-22.4 35.3l-4.1 2.3-2.1-4c-2.6-5.3-2.6-6.7 1-16.8 1.7-4.6 3-9.7 3-11.1.1-5 4.2-9.6 11.2-12.7 4.7-2 7.3-1.8 10.3.8Zm21.5 38.1c0 .6-.7 2-1.5 3-1.5 1.9-1.5 1.9-1.5-.1 0-1.2-.3-2.8-.6-3.6-.4-1.2 0-1.4 1.5-1 1.2.3 2.1 1 2.1 1.7Zm-5.5 47.1c4.9 4.8 3 10.2-7.9 23-7.4 8.6-34 35.5-35.2 35.5-.3 0-.3-3.5 0-7.8.3-4.2.8-16.9 1.1-28.1.2-11.2.6-20.5.7-20.7.2-.1 3-.5 6.3-.8 12-1.1 18.1-1.8 22-2.6 7.5-1.5 10.4-1.1 13 1.5Zm163.5-8.7c0 4.4.9 6.2 3.2 6.2 2.8 0 2.1-5.7-.9-7.8-2.2-1.4-2.3-1.3-2.3 1.6Zm-43 58.2-2.5 2 2.5 1.9c2.8 2.2 4 1.3 4-3.2 0-3.2-.7-3.3-4-.7Z"/>
</svg>
